<mxfile host="app.diagrams.net" agent="Mozilla/5.0 (Windows NT 10.0; Win64; x64) AppleWebKit/537.36 (KHTML, like Gecko) Chrome/130.0.0.0 Safari/537.36" version="24.8.0">
  <diagram id="C5RBs43oDa-KdzZeNtuy" name="Page-1">
    <mxGraphModel dx="792" dy="1145" grid="1" gridSize="10" guides="1" tooltips="1" connect="1" arrows="1" fold="1" page="1" pageScale="1" pageWidth="827" pageHeight="1169" math="0" shadow="0">
      <root>
        <mxCell id="WIyWlLk6GJQsqaUBKTNV-0" />
        <mxCell id="WIyWlLk6GJQsqaUBKTNV-1" parent="WIyWlLk6GJQsqaUBKTNV-0" />
        <mxCell id="4fuxWYfJgOlENITbqr8a-1" value="Uno Simulator" style="rounded=1;whiteSpace=wrap;html=1;" vertex="1" parent="WIyWlLk6GJQsqaUBKTNV-1">
          <mxGeometry x="76" y="40" width="110" height="40" as="geometry" />
        </mxCell>
        <mxCell id="4fuxWYfJgOlENITbqr8a-2" value="Input number of players" style="shape=parallelogram;perimeter=parallelogramPerimeter;whiteSpace=wrap;html=1;fixedSize=1;" vertex="1" parent="WIyWlLk6GJQsqaUBKTNV-1">
          <mxGeometry x="66" y="120" width="120" height="60" as="geometry" />
        </mxCell>
        <mxCell id="4fuxWYfJgOlENITbqr8a-3" value="" style="endArrow=classic;html=1;rounded=0;exitX=0.5;exitY=1;exitDx=0;exitDy=0;" edge="1" parent="WIyWlLk6GJQsqaUBKTNV-1" source="4fuxWYfJgOlENITbqr8a-1" target="4fuxWYfJgOlENITbqr8a-2">
          <mxGeometry width="50" height="50" relative="1" as="geometry">
            <mxPoint x="146" y="610" as="sourcePoint" />
            <mxPoint x="196" y="560" as="targetPoint" />
          </mxGeometry>
        </mxCell>
        <mxCell id="4fuxWYfJgOlENITbqr8a-4" value="Call initializeDeck function" style="shape=process;whiteSpace=wrap;html=1;backgroundOutline=1;" vertex="1" parent="WIyWlLk6GJQsqaUBKTNV-1">
          <mxGeometry x="60" y="220" width="120" height="60" as="geometry" />
        </mxCell>
        <mxCell id="4fuxWYfJgOlENITbqr8a-5" value="" style="endArrow=classic;html=1;rounded=0;exitX=0.5;exitY=1;exitDx=0;exitDy=0;entryX=0.558;entryY=0.017;entryDx=0;entryDy=0;entryPerimeter=0;" edge="1" parent="WIyWlLk6GJQsqaUBKTNV-1" source="4fuxWYfJgOlENITbqr8a-2" target="4fuxWYfJgOlENITbqr8a-4">
          <mxGeometry width="50" height="50" relative="1" as="geometry">
            <mxPoint x="146" y="610" as="sourcePoint" />
            <mxPoint x="196" y="560" as="targetPoint" />
          </mxGeometry>
        </mxCell>
        <mxCell id="4fuxWYfJgOlENITbqr8a-6" value="Call shuffle function" style="shape=process;whiteSpace=wrap;html=1;backgroundOutline=1;" vertex="1" parent="WIyWlLk6GJQsqaUBKTNV-1">
          <mxGeometry x="60" y="320" width="120" height="60" as="geometry" />
        </mxCell>
        <mxCell id="4fuxWYfJgOlENITbqr8a-7" value="" style="endArrow=classic;html=1;rounded=0;exitX=0.5;exitY=1;exitDx=0;exitDy=0;entryX=0.5;entryY=0;entryDx=0;entryDy=0;" edge="1" parent="WIyWlLk6GJQsqaUBKTNV-1" source="4fuxWYfJgOlENITbqr8a-4" target="4fuxWYfJgOlENITbqr8a-6">
          <mxGeometry width="50" height="50" relative="1" as="geometry">
            <mxPoint x="146" y="610" as="sourcePoint" />
            <mxPoint x="196" y="560" as="targetPoint" />
          </mxGeometry>
        </mxCell>
        <mxCell id="4fuxWYfJgOlENITbqr8a-8" value="Input player&#39;s&amp;nbsp;&lt;div&gt;names&lt;/div&gt;" style="shape=parallelogram;perimeter=parallelogramPerimeter;whiteSpace=wrap;html=1;fixedSize=1;" vertex="1" parent="WIyWlLk6GJQsqaUBKTNV-1">
          <mxGeometry x="60" y="420" width="120" height="60" as="geometry" />
        </mxCell>
        <mxCell id="4fuxWYfJgOlENITbqr8a-9" value="" style="endArrow=classic;html=1;rounded=0;exitX=0.5;exitY=1;exitDx=0;exitDy=0;" edge="1" parent="WIyWlLk6GJQsqaUBKTNV-1" source="4fuxWYfJgOlENITbqr8a-6" target="4fuxWYfJgOlENITbqr8a-8">
          <mxGeometry width="50" height="50" relative="1" as="geometry">
            <mxPoint x="146" y="610" as="sourcePoint" />
            <mxPoint x="196" y="560" as="targetPoint" />
          </mxGeometry>
        </mxCell>
        <mxCell id="4fuxWYfJgOlENITbqr8a-10" value="" style="endArrow=classic;html=1;rounded=0;exitX=0.5;exitY=1;exitDx=0;exitDy=0;" edge="1" parent="WIyWlLk6GJQsqaUBKTNV-1" source="4fuxWYfJgOlENITbqr8a-8" target="4fuxWYfJgOlENITbqr8a-11">
          <mxGeometry width="50" height="50" relative="1" as="geometry">
            <mxPoint x="146" y="610" as="sourcePoint" />
            <mxPoint x="120" y="520" as="targetPoint" />
          </mxGeometry>
        </mxCell>
        <mxCell id="4fuxWYfJgOlENITbqr8a-11" value="Call dealer function" style="shape=process;whiteSpace=wrap;html=1;backgroundOutline=1;" vertex="1" parent="WIyWlLk6GJQsqaUBKTNV-1">
          <mxGeometry x="60" y="520" width="120" height="60" as="geometry" />
        </mxCell>
        <mxCell id="4fuxWYfJgOlENITbqr8a-12" value="" style="endArrow=classic;html=1;rounded=0;exitX=0.5;exitY=1;exitDx=0;exitDy=0;" edge="1" parent="WIyWlLk6GJQsqaUBKTNV-1" source="4fuxWYfJgOlENITbqr8a-11" target="4fuxWYfJgOlENITbqr8a-13">
          <mxGeometry width="50" height="50" relative="1" as="geometry">
            <mxPoint x="146" y="610" as="sourcePoint" />
            <mxPoint x="120" y="620" as="targetPoint" />
          </mxGeometry>
        </mxCell>
        <mxCell id="4fuxWYfJgOlENITbqr8a-13" value="A" style="ellipse;whiteSpace=wrap;html=1;aspect=fixed;" vertex="1" parent="WIyWlLk6GJQsqaUBKTNV-1">
          <mxGeometry x="92" y="610" width="56" height="56" as="geometry" />
        </mxCell>
        <mxCell id="4fuxWYfJgOlENITbqr8a-14" value="A" style="ellipse;whiteSpace=wrap;html=1;aspect=fixed;" vertex="1" parent="WIyWlLk6GJQsqaUBKTNV-1">
          <mxGeometry x="256" y="45" width="60" height="60" as="geometry" />
        </mxCell>
        <mxCell id="4fuxWYfJgOlENITbqr8a-15" value="" style="endArrow=classic;html=1;rounded=0;exitX=0.5;exitY=1;exitDx=0;exitDy=0;" edge="1" parent="WIyWlLk6GJQsqaUBKTNV-1" source="4fuxWYfJgOlENITbqr8a-14">
          <mxGeometry width="50" height="50" relative="1" as="geometry">
            <mxPoint x="376" y="625" as="sourcePoint" />
            <mxPoint x="286" y="135" as="targetPoint" />
          </mxGeometry>
        </mxCell>
        <mxCell id="4fuxWYfJgOlENITbqr8a-16" value="while (!gameOver)" style="rhombus;whiteSpace=wrap;html=1;" vertex="1" parent="WIyWlLk6GJQsqaUBKTNV-1">
          <mxGeometry x="236" y="135" width="100" height="100" as="geometry" />
        </mxCell>
        <mxCell id="4fuxWYfJgOlENITbqr8a-17" value="" style="endArrow=classic;html=1;rounded=0;exitX=0.5;exitY=1;exitDx=0;exitDy=0;" edge="1" parent="WIyWlLk6GJQsqaUBKTNV-1" source="4fuxWYfJgOlENITbqr8a-16">
          <mxGeometry width="50" height="50" relative="1" as="geometry">
            <mxPoint x="306" y="615" as="sourcePoint" />
            <mxPoint x="286" y="275" as="targetPoint" />
          </mxGeometry>
        </mxCell>
        <mxCell id="4fuxWYfJgOlENITbqr8a-18" value="True" style="text;html=1;align=center;verticalAlign=middle;whiteSpace=wrap;rounded=0;" vertex="1" parent="WIyWlLk6GJQsqaUBKTNV-1">
          <mxGeometry x="276" y="235" width="60" height="30" as="geometry" />
        </mxCell>
        <mxCell id="4fuxWYfJgOlENITbqr8a-19" value="Call displayHand function" style="shape=process;whiteSpace=wrap;html=1;backgroundOutline=1;" vertex="1" parent="WIyWlLk6GJQsqaUBKTNV-1">
          <mxGeometry x="226" y="275" width="120" height="60" as="geometry" />
        </mxCell>
        <mxCell id="4fuxWYfJgOlENITbqr8a-20" value="if playTurn(currentPlayer, env)" style="rhombus;whiteSpace=wrap;html=1;" vertex="1" parent="WIyWlLk6GJQsqaUBKTNV-1">
          <mxGeometry x="226" y="375" width="120" height="110" as="geometry" />
        </mxCell>
        <mxCell id="4fuxWYfJgOlENITbqr8a-21" value="" style="endArrow=classic;html=1;rounded=0;exitX=0.5;exitY=1;exitDx=0;exitDy=0;" edge="1" parent="WIyWlLk6GJQsqaUBKTNV-1" source="4fuxWYfJgOlENITbqr8a-19" target="4fuxWYfJgOlENITbqr8a-20">
          <mxGeometry width="50" height="50" relative="1" as="geometry">
            <mxPoint x="306" y="615" as="sourcePoint" />
            <mxPoint x="356" y="565" as="targetPoint" />
          </mxGeometry>
        </mxCell>
        <mxCell id="4fuxWYfJgOlENITbqr8a-22" value="" style="endArrow=classic;html=1;rounded=0;exitX=0.5;exitY=1;exitDx=0;exitDy=0;" edge="1" parent="WIyWlLk6GJQsqaUBKTNV-1" source="4fuxWYfJgOlENITbqr8a-20">
          <mxGeometry width="50" height="50" relative="1" as="geometry">
            <mxPoint x="306" y="615" as="sourcePoint" />
            <mxPoint x="286" y="525" as="targetPoint" />
          </mxGeometry>
        </mxCell>
        <mxCell id="4fuxWYfJgOlENITbqr8a-23" value="True" style="text;html=1;align=center;verticalAlign=middle;whiteSpace=wrap;rounded=0;" vertex="1" parent="WIyWlLk6GJQsqaUBKTNV-1">
          <mxGeometry x="286" y="485" width="60" height="30" as="geometry" />
        </mxCell>
        <mxCell id="4fuxWYfJgOlENITbqr8a-24" value="Output &quot; &quot; played a card" style="shape=parallelogram;perimeter=parallelogramPerimeter;whiteSpace=wrap;html=1;fixedSize=1;" vertex="1" parent="WIyWlLk6GJQsqaUBKTNV-1">
          <mxGeometry x="220" y="525" width="120" height="60" as="geometry" />
        </mxCell>
        <mxCell id="4fuxWYfJgOlENITbqr8a-25" value="" style="endArrow=classic;html=1;rounded=0;exitX=1;exitY=0.5;exitDx=0;exitDy=0;" edge="1" parent="WIyWlLk6GJQsqaUBKTNV-1" source="4fuxWYfJgOlENITbqr8a-20">
          <mxGeometry width="50" height="50" relative="1" as="geometry">
            <mxPoint x="306" y="615" as="sourcePoint" />
            <mxPoint x="376" y="430" as="targetPoint" />
          </mxGeometry>
        </mxCell>
        <mxCell id="4fuxWYfJgOlENITbqr8a-27" value="False" style="text;html=1;align=center;verticalAlign=middle;whiteSpace=wrap;rounded=0;" vertex="1" parent="WIyWlLk6GJQsqaUBKTNV-1">
          <mxGeometry x="326" y="395" width="60" height="30" as="geometry" />
        </mxCell>
        <mxCell id="4fuxWYfJgOlENITbqr8a-28" value="False" style="text;html=1;align=center;verticalAlign=middle;whiteSpace=wrap;rounded=0;" vertex="1" parent="WIyWlLk6GJQsqaUBKTNV-1">
          <mxGeometry x="326" y="145" width="60" height="30" as="geometry" />
        </mxCell>
        <mxCell id="4fuxWYfJgOlENITbqr8a-31" value="" style="endArrow=classic;html=1;rounded=0;exitX=1;exitY=0.5;exitDx=0;exitDy=0;" edge="1" parent="WIyWlLk6GJQsqaUBKTNV-1" source="4fuxWYfJgOlENITbqr8a-16">
          <mxGeometry width="50" height="50" relative="1" as="geometry">
            <mxPoint x="306" y="615" as="sourcePoint" />
            <mxPoint x="386" y="185" as="targetPoint" />
          </mxGeometry>
        </mxCell>
        <mxCell id="4fuxWYfJgOlENITbqr8a-32" value="End" style="rounded=1;whiteSpace=wrap;html=1;" vertex="1" parent="WIyWlLk6GJQsqaUBKTNV-1">
          <mxGeometry x="386" y="165" width="80" height="40" as="geometry" />
        </mxCell>
        <mxCell id="4fuxWYfJgOlENITbqr8a-33" value="Call drawCard function" style="shape=process;whiteSpace=wrap;html=1;backgroundOutline=1;" vertex="1" parent="WIyWlLk6GJQsqaUBKTNV-1">
          <mxGeometry x="376" y="400" width="120" height="60" as="geometry" />
        </mxCell>
        <mxCell id="4fuxWYfJgOlENITbqr8a-35" value="B" style="ellipse;whiteSpace=wrap;html=1;aspect=fixed;" vertex="1" parent="WIyWlLk6GJQsqaUBKTNV-1">
          <mxGeometry x="258" y="610" width="56" height="56" as="geometry" />
        </mxCell>
        <mxCell id="4fuxWYfJgOlENITbqr8a-36" value="" style="endArrow=classic;html=1;rounded=0;exitX=0.5;exitY=1;exitDx=0;exitDy=0;entryX=0.5;entryY=0;entryDx=0;entryDy=0;" edge="1" parent="WIyWlLk6GJQsqaUBKTNV-1" source="4fuxWYfJgOlENITbqr8a-24" target="4fuxWYfJgOlENITbqr8a-35">
          <mxGeometry width="50" height="50" relative="1" as="geometry">
            <mxPoint x="380" y="610" as="sourcePoint" />
            <mxPoint x="430" y="560" as="targetPoint" />
          </mxGeometry>
        </mxCell>
        <mxCell id="4fuxWYfJgOlENITbqr8a-37" value="B" style="ellipse;whiteSpace=wrap;html=1;aspect=fixed;" vertex="1" parent="WIyWlLk6GJQsqaUBKTNV-1">
          <mxGeometry x="539.5" y="45" width="56" height="56" as="geometry" />
        </mxCell>
        <mxCell id="4fuxWYfJgOlENITbqr8a-38" value="" style="endArrow=classic;html=1;rounded=0;exitX=0.5;exitY=1;exitDx=0;exitDy=0;" edge="1" parent="WIyWlLk6GJQsqaUBKTNV-1" source="4fuxWYfJgOlENITbqr8a-33">
          <mxGeometry width="50" height="50" relative="1" as="geometry">
            <mxPoint x="380" y="610" as="sourcePoint" />
            <mxPoint x="436" y="500" as="targetPoint" />
          </mxGeometry>
        </mxCell>
        <mxCell id="4fuxWYfJgOlENITbqr8a-39" value="B" style="ellipse;whiteSpace=wrap;html=1;aspect=fixed;" vertex="1" parent="WIyWlLk6GJQsqaUBKTNV-1">
          <mxGeometry x="408" y="500" width="56" height="56" as="geometry" />
        </mxCell>
        <mxCell id="4fuxWYfJgOlENITbqr8a-40" value="" style="endArrow=classic;html=1;rounded=0;exitX=0.5;exitY=1;exitDx=0;exitDy=0;" edge="1" parent="WIyWlLk6GJQsqaUBKTNV-1" source="4fuxWYfJgOlENITbqr8a-37" target="4fuxWYfJgOlENITbqr8a-41">
          <mxGeometry width="50" height="50" relative="1" as="geometry">
            <mxPoint x="319.5" y="615" as="sourcePoint" />
            <mxPoint x="567.5" y="145" as="targetPoint" />
          </mxGeometry>
        </mxCell>
        <mxCell id="4fuxWYfJgOlENITbqr8a-41" value="if(currentPlayer.hand.empty)" style="rhombus;whiteSpace=wrap;html=1;" vertex="1" parent="WIyWlLk6GJQsqaUBKTNV-1">
          <mxGeometry x="496" y="125" width="143" height="130" as="geometry" />
        </mxCell>
        <mxCell id="4fuxWYfJgOlENITbqr8a-42" value="" style="endArrow=classic;html=1;rounded=0;exitX=0.5;exitY=1;exitDx=0;exitDy=0;" edge="1" parent="WIyWlLk6GJQsqaUBKTNV-1" source="4fuxWYfJgOlENITbqr8a-41">
          <mxGeometry width="50" height="50" relative="1" as="geometry">
            <mxPoint x="319.5" y="615" as="sourcePoint" />
            <mxPoint x="569.5" y="305" as="targetPoint" />
          </mxGeometry>
        </mxCell>
        <mxCell id="4fuxWYfJgOlENITbqr8a-43" value="True" style="text;html=1;align=center;verticalAlign=middle;whiteSpace=wrap;rounded=0;" vertex="1" parent="WIyWlLk6GJQsqaUBKTNV-1">
          <mxGeometry x="499.5" y="255" width="60" height="30" as="geometry" />
        </mxCell>
        <mxCell id="4fuxWYfJgOlENITbqr8a-44" value="gameOver = true" style="shape=parallelogram;perimeter=parallelogramPerimeter;whiteSpace=wrap;html=1;fixedSize=1;" vertex="1" parent="WIyWlLk6GJQsqaUBKTNV-1">
          <mxGeometry x="507.5" y="305" width="120" height="60" as="geometry" />
        </mxCell>
        <mxCell id="4fuxWYfJgOlENITbqr8a-45" value="" style="endArrow=classic;html=1;rounded=0;exitX=1;exitY=0.5;exitDx=0;exitDy=0;" edge="1" parent="WIyWlLk6GJQsqaUBKTNV-1" source="4fuxWYfJgOlENITbqr8a-41">
          <mxGeometry width="50" height="50" relative="1" as="geometry">
            <mxPoint x="380" y="610" as="sourcePoint" />
            <mxPoint x="680" y="190" as="targetPoint" />
          </mxGeometry>
        </mxCell>
        <mxCell id="4fuxWYfJgOlENITbqr8a-46" value="False" style="text;html=1;align=center;verticalAlign=middle;whiteSpace=wrap;rounded=0;" vertex="1" parent="WIyWlLk6GJQsqaUBKTNV-1">
          <mxGeometry x="627.5" y="150" width="60" height="30" as="geometry" />
        </mxCell>
        <mxCell id="4fuxWYfJgOlENITbqr8a-47" value="env.currenPlayer = *move to next person formula*" style="shape=parallelogram;perimeter=parallelogramPerimeter;whiteSpace=wrap;html=1;fixedSize=1;" vertex="1" parent="WIyWlLk6GJQsqaUBKTNV-1">
          <mxGeometry x="670" y="160" width="130" height="65" as="geometry" />
        </mxCell>
        <mxCell id="4fuxWYfJgOlENITbqr8a-48" value="" style="endArrow=none;html=1;rounded=0;entryX=0.5;entryY=1;entryDx=0;entryDy=0;" edge="1" parent="WIyWlLk6GJQsqaUBKTNV-1" target="4fuxWYfJgOlENITbqr8a-47">
          <mxGeometry width="50" height="50" relative="1" as="geometry">
            <mxPoint x="735" y="380" as="sourcePoint" />
            <mxPoint x="430" y="560" as="targetPoint" />
          </mxGeometry>
        </mxCell>
        <mxCell id="4fuxWYfJgOlENITbqr8a-49" value="" style="endArrow=none;html=1;rounded=0;" edge="1" parent="WIyWlLk6GJQsqaUBKTNV-1">
          <mxGeometry width="50" height="50" relative="1" as="geometry">
            <mxPoint x="380" y="380" as="sourcePoint" />
            <mxPoint x="740" y="380" as="targetPoint" />
          </mxGeometry>
        </mxCell>
        <mxCell id="4fuxWYfJgOlENITbqr8a-50" value="" style="endArrow=none;html=1;rounded=0;entryX=0.438;entryY=1.083;entryDx=0;entryDy=0;entryPerimeter=0;" edge="1" parent="WIyWlLk6GJQsqaUBKTNV-1" target="4fuxWYfJgOlENITbqr8a-44">
          <mxGeometry width="50" height="50" relative="1" as="geometry">
            <mxPoint x="560" y="380" as="sourcePoint" />
            <mxPoint x="430" y="560" as="targetPoint" />
          </mxGeometry>
        </mxCell>
        <mxCell id="4fuxWYfJgOlENITbqr8a-51" value="" style="endArrow=none;html=1;rounded=0;" edge="1" parent="WIyWlLk6GJQsqaUBKTNV-1">
          <mxGeometry width="50" height="50" relative="1" as="geometry">
            <mxPoint x="380" y="250" as="sourcePoint" />
            <mxPoint x="380" y="380" as="targetPoint" />
          </mxGeometry>
        </mxCell>
        <mxCell id="4fuxWYfJgOlENITbqr8a-52" value="" style="endArrow=classic;html=1;rounded=0;entryX=1;entryY=1;entryDx=0;entryDy=0;" edge="1" parent="WIyWlLk6GJQsqaUBKTNV-1" target="4fuxWYfJgOlENITbqr8a-16">
          <mxGeometry width="50" height="50" relative="1" as="geometry">
            <mxPoint x="380" y="250" as="sourcePoint" />
            <mxPoint x="430" y="560" as="targetPoint" />
          </mxGeometry>
        </mxCell>
      </root>
    </mxGraphModel>
  </diagram>
</mxfile>
